<?xml version="1.0" encoding="UTF-8" standalone="no"?>
<!-- Created with Inkscape (http://www.inkscape.org/) -->

<svg
   xmlns:dc="http://purl.org/dc/elements/1.1/"
   xmlns:cc="http://creativecommons.org/ns#"
   xmlns:rdf="http://www.w3.org/1999/02/22-rdf-syntax-ns#"
   xmlns:svg="http://www.w3.org/2000/svg"
   xmlns="http://www.w3.org/2000/svg"
   xmlns:sodipodi="http://sodipodi.sourceforge.net/DTD/sodipodi-0.dtd"
   xmlns:inkscape="http://www.inkscape.org/namespaces/inkscape"
   width="96.752487mm"
   height="206.45247mm"
   viewBox="0 0 342.82377 731.52449"
   id="svg2"
   version="1.1"
   inkscape:version="0.91 r13725"
   sodipodi:docname="door_icon.svg">
  <defs
     id="defs4">
    <marker
       inkscape:stockid="Arrow2Mstart"
       orient="auto"
       refY="0"
       refX="0"
       id="Arrow2Mstart"
       style="overflow:visible"
       inkscape:isstock="true">
      <path
         id="path4191"
         style="fill:#000000;fill-opacity:1;fill-rule:evenodd;stroke:#000000;stroke-width:0.625;stroke-linejoin:round;stroke-opacity:1"
         d="M 8.7185878,4.0337352 -2.2072895,0.01601326 8.7185884,-4.0017078 c -1.7454984,2.3720609 -1.7354408,5.6174519 -6e-7,8.035443 z"
         transform="scale(0.6,0.6)"
         inkscape:connector-curvature="0" />
    </marker>
    <marker
       inkscape:stockid="Arrow1Mstart"
       orient="auto"
       refY="0"
       refX="0"
       id="Arrow1Mstart"
       style="overflow:visible"
       inkscape:isstock="true">
      <path
         id="path4173"
         d="M 0,0 5,-5 -12.5,0 5,5 0,0 Z"
         style="fill:#000000;fill-opacity:1;fill-rule:evenodd;stroke:#000000;stroke-width:1pt;stroke-opacity:1"
         transform="matrix(0.4,0,0,0.4,4,0)"
         inkscape:connector-curvature="0" />
    </marker>
    <marker
       inkscape:stockid="TriangleInL"
       orient="auto"
       refY="0"
       refX="0"
       id="TriangleInL"
       style="overflow:visible"
       inkscape:isstock="true">
      <path
         id="path4300"
         d="m 5.77,0 -8.65,5 0,-10 8.65,5 z"
         style="fill:#000000;fill-opacity:1;fill-rule:evenodd;stroke:#000000;stroke-width:1pt;stroke-opacity:1"
         transform="scale(-0.8,-0.8)"
         inkscape:connector-curvature="0" />
    </marker>
  </defs>
  <sodipodi:namedview
     id="base"
     pagecolor="#ffffff"
     bordercolor="#666666"
     borderopacity="1.0"
     inkscape:pageopacity="0.0"
     inkscape:pageshadow="2"
     inkscape:zoom="0.98994949"
     inkscape:cx="280.52534"
     inkscape:cy="385.80028"
     inkscape:document-units="px"
     inkscape:current-layer="layer1"
     showgrid="false"
     fit-margin-top="10"
     fit-margin-left="10"
     fit-margin-right="10"
     fit-margin-bottom="10"
     inkscape:window-width="1395"
     inkscape:window-height="855"
     inkscape:window-x="45"
     inkscape:window-y="1"
     inkscape:window-maximized="1" />
  <metadata
     id="metadata7">
    <rdf:RDF>
      <cc:Work
         rdf:about="">
        <dc:format>image/svg+xml</dc:format>
        <dc:type
           rdf:resource="http://purl.org/dc/dcmitype/StillImage" />
        <dc:title></dc:title>
      </cc:Work>
    </rdf:RDF>
  </metadata>
  <g
     inkscape:label="Layer 1"
     inkscape:groupmode="layer"
     id="layer1"
     transform="translate(-24.466717,-76.599595)">
    <path
       style="color:#000000;font-style:normal;font-variant:normal;font-weight:normal;font-stretch:normal;font-size:medium;line-height:normal;font-family:sans-serif;text-indent:0;text-align:start;text-decoration:none;text-decoration-line:none;text-decoration-style:solid;text-decoration-color:#000000;letter-spacing:normal;word-spacing:normal;text-transform:none;direction:ltr;block-progression:tb;writing-mode:lr-tb;baseline-shift:baseline;text-anchor:start;white-space:normal;clip-rule:nonzero;display:inline;overflow:visible;visibility:visible;opacity:1;isolation:auto;mix-blend-mode:normal;color-interpolation:sRGB;color-interpolation-filters:linearRGB;solid-color:#000000;solid-opacity:1;fill:#000000;fill-opacity:1;fill-rule:nonzero;stroke:none;stroke-width:18;stroke-linecap:round;stroke-linejoin:round;stroke-miterlimit:4;stroke-dasharray:none;stroke-dashoffset:0;stroke-opacity:1;color-rendering:auto;image-rendering:auto;shape-rendering:auto;text-rendering:auto;enable-background:accumulate"
       d="m 247.86133,112.04102 c -8.61236,0.34469 -15.9352,11.27686 -17.8125,22.75 l -60.04883,0 c -15.1189,0 -27.57227,12.45141 -27.57227,27.57031 l 0,57.14453 a 9.0009,9.0009 0 1 0 18,0 l 0,-57.14453 c 0,-5.45824 4.11403,-9.57031 9.57227,-9.57031 l 59.57031,0 0,219.14257 -59.57031,0 c -5.45825,0 -9.57227,-4.11402 -9.57227,-9.57226 l 0,-65.28516 a 9.0009,9.0009 0 1 0 -18,0 l 0,65.28516 c 0,15.1189 12.45338,27.57226 27.57227,27.57226 l 60.03711,0 c 2.18898,13.37757 11.79789,26.01768 22.19922,22 l 56.95508,-22 c 0.84451,-0.3262 1.68118,-0.6759 2.51171,-1.03711 7.51861,-2.12978 13.77486,-7.39792 17.23438,-14.27539 0.0571,-0.1068 0.11043,-0.21626 0.16602,-0.32421 0.005,-0.01 0.0106,-0.0195 0.0156,-0.0293 0.002,-0.004 0.004,-0.008 0.006,-0.0117 1.72701,-3.37001 2.73242,-7.29514 2.73242,-11.89453 l 0,-200 c 0,-4.5994 -1.00541,-8.52477 -2.73242,-11.89453 -0.002,-0.004 -0.004,-0.008 -0.006,-0.0117 -0.005,-0.01 -0.0108,-0.0193 -0.0156,-0.0293 -0.0556,-0.10794 -0.10895,-0.21742 -0.16602,-0.32422 -3.45952,-6.87703 -9.71577,-12.14395 -17.23438,-14.27344 -0.83053,-0.36118 -1.6672,-0.7109 -2.51171,-1.0371 l -56.95508,-22 c -1.4807,-0.57195 -2.94548,-0.80722 -4.375,-0.75 z M 123.0332,227.48242 c -0.72157,-0.003 -1.43496,0.1422 -2.09765,0.42774 l -57.871097,24.95703 c -4.219553,1.82097 -4.219553,7.80403 0,9.625 l 57.871097,24.95703 c 4.87845,2.10117 9.42738,-3.55059 6.33203,-7.86719 -2.60626,-3.6313 -4.49356,-7.59745 -5.67188,-11.70508 l 51.27539,0 -0.0859,-0.002 c 5.69018,0.0962 10.4707,-4.60396 10.4707,-10.29492 0,-5.69097 -4.78055,-10.39112 -10.4707,-10.29492 l -51.19727,0 c 1.17162,-4.0491 3.05008,-7.93128 5.64453,-11.45704 2.53787,-3.45199 0.0853,-8.32484 -4.19922,-8.3457 z m 137.13672,27.10547 a 10.359689,10.359689 0 0 1 10.36524,10.35156 l 0,0.01 a 10.359689,10.359689 0 0 1 -10.35743,10.35937 10.359689,10.359689 0 0 1 -10.36132,-10.35547 10.359689,10.359689 0 0 1 10.35351,-10.36523 z"
       id="rect4136"
       inkscape:connector-curvature="0" />
    <path
       style="color:#000000;font-style:normal;font-variant:normal;font-weight:normal;font-stretch:normal;font-size:medium;line-height:normal;font-family:sans-serif;text-indent:0;text-align:start;text-decoration:none;text-decoration-line:none;text-decoration-style:solid;text-decoration-color:#000000;letter-spacing:normal;word-spacing:normal;text-transform:none;direction:ltr;block-progression:tb;writing-mode:lr-tb;baseline-shift:baseline;text-anchor:start;white-space:normal;clip-rule:nonzero;display:inline;overflow:visible;visibility:visible;opacity:1;isolation:auto;mix-blend-mode:normal;color-interpolation:sRGB;color-interpolation-filters:linearRGB;solid-color:#000000;solid-opacity:1;fill:#000000;fill-opacity:1;fill-rule:nonzero;stroke:none;stroke-width:18;stroke-linecap:round;stroke-linejoin:round;stroke-miterlimit:4;stroke-dasharray:none;stroke-dashoffset:0;stroke-opacity:1;color-rendering:auto;image-rendering:auto;shape-rendering:auto;text-rendering:auto;enable-background:accumulate"
       d="m 247.86133,472.04102 c -8.61236,0.34469 -15.9352,11.27686 -17.8125,22.75 l -60.04883,0 c -15.1189,0 -27.57227,12.45141 -27.57227,27.57031 l 0,57.14453 a 9.0009,9.0009 0 1 0 18,0 l 0,-57.14453 c 0,-5.45824 4.11403,-9.57031 9.57227,-9.57031 l 59.57031,0 0,219.14257 -59.57031,0 c -5.45825,0 -9.57227,-4.11402 -9.57227,-9.57226 l 0,-65.28516 a 9.0009,9.0009 0 1 0 -18,0 l 0,65.28516 c 0,15.1189 12.45338,27.57226 27.57227,27.57226 l 60.03711,0 c 2.18898,13.37757 11.79789,26.01768 22.19922,22 l 56.95508,-22 c 0.84451,-0.3262 1.68119,-0.6759 2.51171,-1.03711 7.51862,-2.12978 13.77486,-7.39792 17.23438,-14.27539 0.0571,-0.1068 0.11043,-0.21628 0.16602,-0.32421 0.005,-0.01 0.0106,-0.0195 0.0156,-0.0293 0.002,-0.004 0.004,-0.008 0.006,-0.0117 1.72701,-3.37001 2.73242,-7.29514 2.73242,-11.89453 l 0,-200 c 0,-4.5994 -1.00541,-8.52477 -2.73242,-11.89453 -0.002,-0.004 -0.004,-0.008 -0.006,-0.0117 -0.005,-0.01 -0.0108,-0.0193 -0.0156,-0.0293 -0.0556,-0.10794 -0.10895,-0.21742 -0.16602,-0.32422 -3.45952,-6.87703 -9.71577,-12.14395 -17.23438,-14.27344 -0.83053,-0.36117 -1.6672,-0.7109 -2.51171,-1.0371 l -56.95508,-22 c -1.4807,-0.57195 -2.94548,-0.80722 -4.375,-0.75 z m -127.73828,115.4414 c -4.28452,0.0209 -6.73709,4.89371 -4.19922,8.3457 2.59445,3.52576 4.47291,7.40794 5.64453,11.45704 l -51.197266,0 c -5.69015,-0.0962 -10.470703,4.60395 -10.470703,10.29492 0,5.69096 4.780523,10.39112 10.470703,10.29492 l -0.08594,0.002 51.275396,0 c -1.17832,4.10763 -3.06562,8.07378 -5.67188,11.70508 -3.09535,4.3166 1.45358,9.96836 6.33203,7.86719 l 57.8711,-24.95703 c 4.21955,-1.82097 4.21955,-7.80403 0,-9.625 l -57.8711,-24.95703 c -0.66269,-0.28554 -1.37608,-0.43074 -2.09765,-0.42774 z m 140.04687,27.10547 a 10.359689,10.359689 0 0 1 10.36524,10.35156 l 0,0.01 a 10.359689,10.359689 0 0 1 -10.35743,10.35937 10.359689,10.359689 0 0 1 -10.36132,-10.35547 10.359689,10.359689 0 0 1 10.35351,-10.36523 z"
       id="path4607"
       inkscape:connector-curvature="0" />
  </g>
</svg>
